<?xml version="1.0" encoding="utf-8"?>
<!-- Generator: Adobe Illustrator 27.8.1, SVG Export Plug-In . SVG Version: 6.00 Build 0)  -->
<svg version="1.1" id="Style_Sheet" xmlns="http://www.w3.org/2000/svg" xmlns:xlink="http://www.w3.org/1999/xlink" x="0px"
	 y="0px" viewBox="0 0 40.01 35" style="enable-background:new 0 0 40.01 35;" xml:space="preserve">
<style type="text/css">
	.st0{fill:#F7DF3F;}
</style>
<g>
	<path class="st0" d="M25.62,11.63c-0.41-0.24-0.93-0.16-1.25,0.18c-1.38,1.43-2.64,2.66-3.75,3.75c-1.9,1.86-3.16,3.09-3.66,3.96
		c-0.98,1.7-0.4,3.89,1.3,4.87c0.56,0.32,1.17,0.48,1.78,0.48c1.23,0,2.43-0.64,3.09-1.78c0.5-0.87,0.94-2.58,1.6-5.16
		c0.39-1.51,0.82-3.22,1.37-5.12C26.22,12.35,26.03,11.87,25.62,11.63z M22.73,17.41c-0.55,2.15-1.03,4.01-1.39,4.64
		c-0.41,0.72-1.34,0.97-2.06,0.55c-0.72-0.41-0.97-1.34-0.55-2.06c0.36-0.63,1.73-1.97,3.32-3.52c0.33-0.33,0.68-0.67,1.04-1.02
		C22.96,16.49,22.84,16.96,22.73,17.41z"/>
	<path class="st0" d="M23.84,27.87h-7.6c-0.57,0-1.03,0.46-1.03,1.03s0.46,1.03,1.03,1.03h7.6c0.57,0,1.03-0.46,1.03-1.03
		S24.4,27.87,23.84,27.87z"/>
	<path class="st0" d="M37.47,29.86c1.68-2.98,2.6-6.36,2.6-9.83c0-3.61-0.96-7-2.64-9.92c-0.01-0.03-0.02-0.06-0.04-0.09
		c-0.02-0.03-0.04-0.05-0.06-0.08c-1.74-2.97-4.22-5.45-7.2-7.2c-0.03-0.02-0.05-0.04-0.08-0.06c-0.03-0.02-0.06-0.03-0.09-0.04
		C27.03,0.96,23.64,0,20.03,0c-3.61,0-7,0.96-9.93,2.64c-0.03,0.01-0.06,0.02-0.09,0.04C9.99,2.7,9.96,2.72,9.94,2.74
		c-2.97,1.74-5.46,4.23-7.2,7.2C2.72,9.96,2.7,9.99,2.68,10.02c-0.02,0.03-0.03,0.06-0.04,0.09C0.97,13.04,0,16.42,0,20.03
		c0,3.46,0.92,6.85,2.6,9.83c0.02,0.06,0.05,0.13,0.09,0.19c0.03,0.06,0.08,0.11,0.12,0.16c0.98,1.66,2.2,3.18,3.64,4.52
		C6.64,34.9,6.88,35,7.14,35h25.78c0.26,0,0.51-0.1,0.7-0.27c1.44-1.33,2.66-2.86,3.64-4.51c0.04-0.05,0.09-0.1,0.12-0.16
		C37.42,29.99,37.45,29.92,37.47,29.86z M32.51,32.94H7.55c-0.97-0.94-1.81-1.96-2.54-3.05l2.37-1.37c0.49-0.28,0.66-0.91,0.38-1.41
		c-0.28-0.49-0.91-0.66-1.41-0.38l-2.37,1.37c-1.1-2.17-1.75-4.56-1.89-7.05h2.74c0.57,0,1.03-0.46,1.03-1.03
		C5.86,19.47,5.4,19,4.83,19H2.09c0.14-2.52,0.81-4.91,1.89-7.05l2.37,1.37c0.16,0.09,0.34,0.14,0.51,0.14
		c0.36,0,0.7-0.18,0.89-0.51c0.28-0.49,0.12-1.12-0.38-1.41l-2.37-1.37c1.35-2.05,3.11-3.81,5.16-5.16l1.37,2.37
		c0.19,0.33,0.54,0.51,0.89,0.51c0.17,0,0.35-0.04,0.51-0.14c0.49-0.28,0.66-0.91,0.38-1.41l-1.37-2.37C14.1,2.9,16.48,2.23,19,2.09
		v2.74c0,0.57,0.46,1.03,1.03,1.03c0.57,0,1.03-0.46,1.03-1.03V2.09c2.52,0.14,4.91,0.81,7.05,1.89l-1.37,2.37
		c-0.28,0.49-0.12,1.12,0.38,1.41c0.16,0.09,0.34,0.14,0.51,0.14c0.36,0,0.7-0.18,0.89-0.51l1.37-2.37
		c2.05,1.35,3.81,3.11,5.16,5.16l-2.37,1.37c-0.49,0.28-0.66,0.91-0.38,1.41c0.19,0.33,0.54,0.51,0.89,0.51
		c0.17,0,0.35-0.04,0.51-0.14l2.37-1.37c1.08,2.14,1.75,4.53,1.89,7.05h-2.74c-0.57,0-1.03,0.46-1.03,1.03
		c0,0.57,0.46,1.03,1.03,1.03h2.74c-0.14,2.49-0.79,4.88-1.89,7.05l-2.37-1.37c-0.49-0.28-1.12-0.12-1.41,0.38
		c-0.28,0.49-0.12,1.12,0.38,1.41l2.37,1.37C34.33,30.98,33.48,32.01,32.51,32.94z"/>
</g>
</svg>
