<?xml version="1.0" encoding="utf-8"?>
<!-- Generator: Adobe Illustrator 27.8.1, SVG Export Plug-In . SVG Version: 6.00 Build 0)  -->
<svg version="1.1" id="Style_Sheet" xmlns="http://www.w3.org/2000/svg" xmlns:xlink="http://www.w3.org/1999/xlink" x="0px"
	 y="0px" viewBox="0 0 35 35" style="enable-background:new 0 0 35 35;" xml:space="preserve">
<style type="text/css">
	.st0{fill:#F7DF3F;}
</style>
<g>
	<path class="st0" d="M17.5,0C7.85,0,0,7.85,0,17.5C0,27.15,7.85,35,17.5,35C27.15,35,35,27.15,35,17.5C35,7.85,27.15,0,17.5,0z
		 M17.5,32.94c-8.51,0-15.44-6.93-15.44-15.44c0-8.51,6.93-15.44,15.44-15.44c8.51,0,15.44,6.93,15.44,15.44
		C32.94,26.01,26.01,32.94,17.5,32.94z"/>
	<path class="st0" d="M25.19,7.69c-0.57,0-1.03,0.46-1.03,1.03v6.59c0,0.64-0.52,1.17-1.17,1.17h-4.46V8.72
		c0-0.57-0.46-1.03-1.03-1.03c-0.57,0-1.03,0.46-1.03,1.03v7.76h-5.63V8.72c0-0.57-0.46-1.03-1.03-1.03c-0.57,0-1.03,0.46-1.03,1.03
		v17.57c0,0.57,0.46,1.03,1.03,1.03c0.57,0,1.03-0.46,1.03-1.03v-7.75h5.63v7.75c0,0.57,0.46,1.03,1.03,1.03
		c0.57,0,1.03-0.46,1.03-1.03v-7.75h4.46c1.78,0,3.23-1.45,3.23-3.23V8.72C26.22,8.15,25.75,7.69,25.19,7.69z"/>
</g>
</svg>
